<svg width="132" height="32" viewBox="0 0 132 32" fill="none" xmlns="http://www.w3.org/2000/svg">
<g clip-path="url(#clip0_134_9751)">
<mask id="mask0_134_9751" style="mask-type:luminance" maskUnits="userSpaceOnUse" x="0" y="0" width="132" height="32">
<path d="M131.385 0H0.642334V32H131.385V0Z" fill="white"/>
</mask>
<g mask="url(#mask0_134_9751)">
<path d="M49.5349 7.16992H42.2994C41.8063 7.16992 41.3832 7.53158 41.3059 8.01802L38.3795 26.5631C38.3743 26.5937 38.3721 26.6255 38.3721 26.6561C38.3721 26.9871 38.644 27.2589 38.9752 27.2589H42.4306C42.9236 27.2589 43.3478 26.8962 43.424 26.4097L44.2133 21.4078C44.2894 20.9214 44.7126 20.5587 45.2056 20.5587H47.4962C52.2624 20.5587 55.0131 18.2534 55.7315 13.6851C56.0552 11.6864 55.7453 10.1161 54.8089 9.01628C53.7806 7.80864 51.9566 7.16992 49.5349 7.16992ZM50.3697 13.9431C49.974 16.5381 47.9902 16.5381 46.0721 16.5381H44.9803L45.7463 11.6917C45.7928 11.3998 46.0467 11.1831 46.3419 11.1831H46.8423C48.1489 11.1831 49.3815 11.1831 50.0184 11.9275C50.3982 12.3717 50.5146 13.0315 50.3697 13.9431ZM71.1632 13.8595H67.6983C67.4032 13.8595 67.1492 14.0763 67.1027 14.3682L66.9493 15.3368L66.707 14.9858C65.9569 13.8976 64.2842 13.5338 62.6147 13.5338C58.7859 13.5338 55.5157 16.4324 54.8788 20.4984C54.5476 22.5267 55.0184 24.4661 56.1695 25.8186C57.2254 27.0622 58.7362 27.5804 60.5337 27.5804C63.6188 27.5804 65.3295 25.5976 65.3295 25.5976L65.175 26.5599C65.1698 26.5916 65.1676 26.6233 65.1676 26.6551C65.1676 26.985 65.4395 27.2578 65.7696 27.2578H68.8907C69.3837 27.2578 69.808 26.8951 69.8841 26.4087L71.7567 14.5554C71.762 14.5236 71.7642 14.4919 71.7642 14.4602C71.7642 14.1303 71.4933 13.8595 71.1632 13.8595ZM66.3335 20.5999C65.9992 22.5785 64.4281 23.9067 62.4243 23.9067C61.4182 23.9067 60.6141 23.5841 60.0978 22.9729C59.5857 22.3659 59.3911 21.502 59.554 20.5396C59.8661 18.578 61.4637 17.2065 63.4368 17.2065C64.4207 17.2065 65.2205 17.5332 65.7474 18.1497C66.2753 18.7726 66.4848 19.6418 66.3335 20.5999ZM89.6165 13.8595H86.1347C85.8015 13.8595 85.4894 14.0256 85.3021 14.3005L80.4999 21.3708L78.4644 14.5765C78.3363 14.1525 77.9428 13.8595 77.4995 13.8595H74.078H74.0758C73.7458 13.8595 73.4728 14.1313 73.4728 14.4623C73.4728 14.5289 73.4844 14.5945 73.5056 14.6569L77.3408 25.9064L73.7352 30.9939C73.6632 31.0954 73.6241 31.2181 73.6241 31.3429C73.6241 31.6739 73.896 31.9456 74.2271 31.9456H77.7047C78.0338 31.9456 78.3437 31.7849 78.531 31.5142L90.1117 14.806C90.1815 14.7055 90.2196 14.585 90.2196 14.4623C90.2196 14.1313 89.9477 13.8595 89.6165 13.8595Z" fill="#253B80"/>
<path d="M101.133 7.17098H93.8967C93.4048 7.17098 92.9805 7.53264 92.9043 8.01908L89.9779 26.5641C89.9727 26.5948 89.9705 26.6265 89.9705 26.6582C89.9705 26.9882 90.2424 27.2599 90.5725 27.2599H94.286C94.6309 27.2599 94.9272 27.0061 94.9801 26.6656L95.8106 21.4089C95.8868 20.9225 96.31 20.5597 96.803 20.5597H99.0925C103.859 20.5597 106.609 18.2544 107.329 13.6861C107.653 11.6875 107.341 10.1171 106.405 9.01734C105.378 7.8097 103.555 7.17098 101.133 7.17098ZM101.968 13.9441C101.573 16.5392 99.5897 16.5392 97.6705 16.5392H96.5798L97.3468 11.6928C97.3923 11.4009 97.6462 11.1841 97.9414 11.1841H98.4418C99.7474 11.1841 100.981 11.1841 101.618 11.9286C101.997 12.3727 102.113 13.0326 101.968 13.9441ZM122.761 13.8606H119.297C119.002 13.8595 118.747 14.0774 118.703 14.3692L118.55 15.3379L118.306 14.9868C117.556 13.8987 115.884 13.5349 114.215 13.5349C110.386 13.5349 107.117 16.4335 106.48 20.4995C106.15 22.5277 106.619 24.4671 107.77 25.8197C108.828 27.0632 110.336 27.5814 112.134 27.5814C115.219 27.5814 116.93 25.5986 116.93 25.5986L116.775 26.5609C116.77 26.5927 116.768 26.6244 116.768 26.6561C116.768 26.9871 117.04 27.2589 117.371 27.2589H117.372H120.492C120.985 27.2589 121.408 26.8962 121.484 26.4097L123.358 14.5564C123.362 14.5258 123.365 14.4951 123.365 14.4644C123.365 14.1334 123.092 13.8606 122.761 13.8606ZM117.931 20.601C117.598 22.5795 116.025 23.9077 114.021 23.9077C113.017 23.9077 112.211 23.5852 111.695 22.974C111.183 22.367 110.99 21.503 111.151 20.5407C111.465 18.5791 113.061 17.2075 115.034 17.2075C116.018 17.2075 116.818 17.5343 117.344 18.1508C117.875 18.7737 118.084 19.6429 117.931 20.601ZM126.845 7.67963L123.875 26.5641C123.87 26.5948 123.868 26.6265 123.868 26.6582C123.868 26.9882 124.14 27.2599 124.47 27.2599H127.456C127.952 27.2599 128.373 26.9004 128.449 26.4108L131.378 7.8668C131.383 7.83613 131.385 7.80441 131.385 7.77269C131.385 7.44275 131.113 7.17098 130.783 7.16992H127.44C127.145 7.17098 126.891 7.38776 126.845 7.67963Z" fill="#179BD7"/>
<path d="M8.3287 30.7713L8.88203 27.2584L7.64948 27.2298H1.76392L5.85408 1.30783C5.87947 1.14497 6.02124 1.02336 6.18629 1.02442H16.1101C19.4047 1.02442 21.6783 1.70967 22.8654 3.06219C23.4218 3.69667 23.7763 4.35971 23.9477 5.08938C24.1275 5.85499 24.1307 6.76971 23.9551 7.88535L23.9424 7.96678V8.68164L24.4989 8.99677C24.9242 9.21144 25.3061 9.5033 25.6256 9.85544C26.1017 10.3979 26.4096 11.0874 26.5397 11.9048C26.6741 12.7455 26.6297 13.7459 26.4096 14.8785C26.1557 16.1813 25.7452 17.316 25.1908 18.2444C24.702 19.0767 24.0439 19.7968 23.26 20.3594C22.5236 20.8818 21.6487 21.2783 20.6595 21.5321C19.7009 21.7817 18.608 21.9075 17.4093 21.9075H16.637C16.0847 21.9075 15.5483 22.1064 15.1273 22.4627C14.7073 22.8233 14.4279 23.3203 14.3401 23.8671L14.2819 24.1832L13.3044 30.3748L13.2599 30.6022C13.2483 30.6741 13.2282 30.71 13.1986 30.7343C13.17 30.7576 13.134 30.7713 13.097 30.7713H8.3287Z" fill="#253B80"/>
<path d="M25.0136 8.19629C24.984 8.38558 24.9501 8.5791 24.912 8.7779C23.6033 15.494 19.1259 17.8141 13.4075 17.8141H10.496C9.79665 17.8141 9.20736 18.3217 9.09839 19.0111L7.60769 28.4608L7.18556 31.1394C7.17921 31.1775 7.17603 31.2166 7.17603 31.2557C7.17603 31.6639 7.51247 32.0002 7.92085 32.0002H13.0848C13.6964 32.0002 14.2158 31.556 14.3121 30.9533L14.3629 30.691L15.3352 24.5238L15.3976 24.1854C15.4928 23.5805 16.0133 23.1364 16.6248 23.1364H17.3972C22.4004 23.1364 26.317 21.106 27.4618 15.2306C27.94 12.7762 27.6924 10.7268 26.4271 9.28549C26.0261 8.83924 25.5468 8.47018 25.0136 8.19629Z" fill="#179BD7"/>
<path d="M23.6441 7.63988C23.2262 7.51932 22.8008 7.42521 22.3713 7.35753C21.5217 7.22746 20.6637 7.16401 19.8046 7.17035H12.0264C11.417 7.17035 10.8933 7.61767 10.8002 8.21938L9.14551 18.6948L9.0979 19.0004C9.20369 18.3141 9.80145 17.8033 10.4955 17.8033H13.407C19.1254 17.8033 23.6028 15.4822 24.9115 8.76715C24.9507 8.56834 24.9835 8.37483 25.0131 8.18554C24.6682 8.00471 24.3074 7.85243 23.9371 7.73188C23.8398 7.70015 23.7425 7.66949 23.6441 7.63988Z" fill="#222D65"/>
<path d="M10.8137 8.14154C10.9068 7.53984 11.4305 7.09146 12.0399 7.09358H19.8182C20.7397 7.09358 21.5999 7.15386 22.3849 7.28075C22.916 7.36429 23.4397 7.48908 23.9518 7.65404C24.3379 7.782 24.6966 7.93322 25.0277 8.1077C25.4171 5.6258 25.0246 3.93594 23.682 2.40577C22.2019 0.721202 19.5305 0 16.1121 0H6.18827C5.49 0 4.89436 0.507591 4.78645 1.19813L0.652914 27.3866C0.645508 27.431 0.642334 27.4755 0.642334 27.5199C0.642334 27.9873 1.02638 28.3711 1.49401 28.3722H7.62078L9.15909 18.6169L10.8137 8.14154Z" fill="#253B80"/>
</g>
</g>
<defs>
<clipPath id="clip0_134_9751">
<rect width="131" height="32" fill="white" transform="translate(0.642334)"/>
</clipPath>
</defs>
</svg>
