<svg width="150" height="40" viewBox="0 0 150 40" fill="none" xmlns="http://www.w3.org/2000/svg">
<g clip-path="url(#clip0_871_8277)">
<path d="M56.5542 28.2223L54.9372 25.4223C55.6932 23.9733 55.6932 22.2653 55.6932 20.0183C55.6932 17.2183 55.6932 15.1183 54.0762 13.4173C53.519 12.8093 52.8355 12.3307 52.0736 12.0151C51.3118 11.6995 50.49 11.5545 49.6662 11.5903C48.8445 11.5722 48.0282 11.7252 47.2689 12.0398C46.5097 12.3543 45.8242 12.8234 45.2562 13.4173C43.6392 15.0413 43.6392 17.0993 43.6392 19.9903C43.6392 22.8813 43.5552 24.8903 45.2562 26.5843C45.8199 27.1871 46.5045 27.6642 47.2652 27.9843C48.0259 28.2961 48.8445 28.4417 49.6662 28.4113C50.1259 28.4046 50.5835 28.3482 51.0312 28.2433L56.5542 28.2223ZM47.5522 24.6173C46.9642 23.9173 46.7962 23.1613 46.7962 19.9903C46.7962 16.8193 46.9992 16.0423 47.5522 15.3633C47.8213 15.0948 48.1398 14.8808 48.4902 14.7333C48.8376 14.5853 49.2115 14.5091 49.5892 14.5093C49.969 14.5098 50.345 14.586 50.6952 14.7333C51.0434 14.881 51.3596 15.095 51.6262 15.3633C52.2142 16.0633 52.3822 16.8193 52.3822 19.9903C52.3822 23.1613 52.2142 23.9313 51.6262 24.6173C51.3659 24.8934 51.0513 25.1126 50.7022 25.2613C50.348 25.4012 49.9699 25.4702 49.5892 25.4643C49.2099 25.4719 48.8332 25.4004 48.4832 25.2543C48.1328 25.1073 47.8161 24.8906 47.5522 24.6173Z" fill="black"/>
<path d="M93.7801 11.7583H96.9091V28.2223H93.7801V11.7583Z" fill="black"/>
<path d="M17.942 28.3902C15.499 28.3902 13.623 27.8792 11.999 26.2482L14.036 24.1902C14.5623 24.67 15.1785 25.0408 15.8489 25.2811C16.5193 25.5214 17.2308 25.6264 17.942 25.5902C19.811 25.5902 20.826 24.8902 20.826 23.5322C20.8357 23.2794 20.7952 23.0272 20.707 22.7902C20.6216 22.5552 20.488 22.3406 20.315 22.1602C19.91 21.8122 19.4052 21.6015 18.873 21.5582L16.899 21.2852C15.7278 21.1855 14.6248 20.692 13.77 19.8852C13.3769 19.4488 13.0726 18.94 12.874 18.3872C12.6651 17.826 12.5722 17.2283 12.601 16.6302C12.587 13.7322 14.708 11.6742 18.299 11.6742C20.504 11.6742 22.205 12.1782 23.57 13.5572L21.512 15.5382C21.0685 15.1277 20.5446 14.8137 19.9734 14.6161C19.4023 14.4185 18.7964 14.3416 18.194 14.3902C16.493 14.3902 15.653 15.3422 15.653 16.4902C15.6665 16.9359 15.8463 17.3604 16.157 17.6802C16.597 18.0452 17.126 18.2867 17.69 18.3802L19.643 18.6322C20.8099 18.6637 21.9241 19.1249 22.772 19.9272C23.2064 20.3983 23.5441 20.9501 23.766 21.5512C23.9831 22.1591 24.0806 22.8032 24.053 23.4482C24.053 26.6052 21.344 28.4112 17.935 28.4112" fill="black"/>
<path d="M28.624 28.2223V11.7583H39.397V14.5583H31.837V18.4433H38.277V21.3903H31.844V25.4293H39.404V28.2293H28.624" fill="black"/>
<path d="M66.4662 28.3903C63.1482 28.3903 60.4392 26.0803 60.4392 22.5663V11.7583H63.6802V22.4683C63.6802 24.3583 64.7932 25.4643 66.4802 25.4643C68.1672 25.4643 69.2802 24.3373 69.2802 22.4683V11.7583H72.4092V22.5523C72.4092 26.0523 69.8052 28.3763 66.4872 28.3763" fill="black"/>
<path d="M87.501 26.5843C86.9432 27.191 86.2594 27.6683 85.4976 27.9827C84.7357 28.2971 83.9143 28.441 83.091 28.4043C82.2705 28.4267 81.4545 28.2762 80.6959 27.9626C79.9374 27.6491 79.2532 27.1795 78.688 26.5843C77.099 24.9533 77.099 22.8953 77.099 19.9903C77.099 17.0853 77.015 15.0903 78.723 13.3963C79.2754 12.795 79.9526 12.3218 80.7071 12.0099C81.4617 11.6979 82.2753 11.5547 83.091 11.5903C83.9111 11.5788 84.7249 11.7342 85.483 12.0471C86.2412 12.36 86.9277 12.8238 87.501 13.4103C89.118 15.0413 89.118 17.0993 89.118 20.0043C89.118 22.9093 89.118 24.8903 87.501 26.5843ZM85.128 15.3843C84.8618 15.1157 84.5451 14.9025 84.1961 14.757C83.847 14.6115 83.4726 14.5366 83.0945 14.5366C82.7164 14.5366 82.342 14.6115 81.993 14.757C81.6439 14.9025 81.3272 15.1157 81.061 15.3843C80.466 16.0843 80.305 16.8403 80.305 20.0113C80.305 23.1823 80.466 23.9523 81.061 24.6313C81.3262 24.9016 81.6427 25.1163 81.9918 25.2628C82.341 25.4094 82.7158 25.4849 83.0945 25.4849C83.4732 25.4849 83.848 25.4094 84.1972 25.2628C84.5464 25.1163 84.8628 24.9016 85.128 24.6313C85.716 23.9313 85.884 23.1823 85.884 20.0113C85.884 16.8403 85.737 16.0423 85.128 15.3633V15.3843Z" fill="black"/>
<path d="M111.945 28.2223L111.014 25.3103H105.239L104.231 28.2223H100.899L106.863 11.7583H109.299L115.242 28.2223H111.945ZM108.116 16.5533L106.079 22.5523H110.153L108.116 16.5533Z" fill="black"/>
<path d="M133.925 11.7578H137.999V15.8738H133.925V11.7578Z" fill="#50B848"/>
<path d="M123.74 24.6798V11.7578H121.703V26.7588L123.74 24.6798Z" fill="#50B848"/>
<path d="M125.168 26.1639L123.131 28.2219H137.999V26.1639H125.168Z" fill="#50B848"/>
<path d="M127.814 20.5848V11.7578H125.777V22.6428L127.814 20.5848Z" fill="#50B848"/>
<path d="M129.242 22.0479L127.198 24.1059H137.999V22.0479H129.242Z" fill="#50B848"/>
<path d="M131.881 16.4898V11.7578H129.844V18.5268L131.881 16.4898Z" fill="#50B848"/>
<path d="M133.316 17.9317L131.286 19.9897H137.999V17.9317H133.316Z" fill="#50B848"/>
</g>
<defs>
<clipPath id="clip0_871_8277">
<rect width="126" height="16.8303" fill="white" transform="translate(12 11.585)"/>
</clipPath>
</defs>
</svg>
