<svg width="142" height="16" viewBox="0 0 142 16" fill="none" xmlns="http://www.w3.org/2000/svg">
<path d="M60.4841 0.306782H62.5608L71.1035 13.0501H71.1507V0.306782H72.6611V15.7168H71.2451L62.136 2.17109H62.0888V15.6696H60.5785V0.306782H60.4841ZM55.6227 0.306782H57.133V15.7168H55.6227V0.306782ZM76.5549 11.3746C76.6493 13.2861 77.8764 14.5605 79.7407 14.5605C81.369 14.5605 82.8322 13.3097 82.8322 11.5162C82.8322 9.17994 80.4487 8.54277 79.3867 8.23599C78.018 7.83481 75.3985 7.26844 75.3985 4.20059C75.3985 1.81711 77.2628 0.0943939 79.7407 0.0943939C82.2658 0.0943939 84.0357 2.0059 84.0357 4.24779H82.5254C82.5254 2.64307 81.251 1.46312 79.8351 1.46312C78.0652 1.46312 77.0504 2.78466 77.0504 4.12979C77.0504 5.9941 78.6788 6.46608 80.6847 7.05605C84.4133 8.0236 84.4133 10.997 84.4133 11.4926C84.4133 13.8289 82.5018 16 79.8115 16C77.782 16 75.1153 14.7965 75.0681 11.4454L76.5549 11.3746ZM126.348 1.72271H122.809V0.306782H131.351V1.72271H127.859V15.6696H126.348V1.72271ZM109.9 0.306782H111.41V7.07965H119.387V0.306782H120.897V15.7168H119.387V8.44838H111.387V15.6696H109.876L109.9 0.306782ZM107.186 8.61357C106.832 13.1681 102.844 15.9528 99.0917 15.9528C94.5372 15.9528 90.8085 12.2242 90.8085 7.9764C90.8085 3.9882 94.0888 0 99.0445 0C103.127 0 105.723 2.78466 106.313 4.38938H104.496C103.599 2.87906 101.57 1.41593 99.0445 1.41593C95.1507 1.41593 92.3661 4.55457 92.3661 8C92.3661 11.4454 95.1507 14.5605 99.1389 14.5605C102.372 14.5605 104.803 12.177 105.345 10.0531H96.8027V8.63717L107.186 8.61357ZM86.7024 0.306782H88.2127V15.7168H86.7024V0.306782ZM133.758 11.3746C133.853 13.2861 135.08 14.5605 136.944 14.5605C138.573 14.5605 140.036 13.3097 140.036 11.5162C140.036 9.17994 137.652 8.54277 136.59 8.23599C135.222 7.83481 132.602 7.26844 132.602 4.20059C132.602 1.81711 134.466 0.0943939 136.944 0.0943939C139.469 0.0943939 141.239 2.0059 141.239 4.24779H139.729C139.729 2.64307 138.455 1.46312 137.039 1.46312C135.269 1.46312 134.254 2.78466 134.254 4.12979C134.254 5.9941 135.882 6.46608 137.888 7.05605C141.617 8.0236 141.617 10.997 141.617 11.4926C141.617 13.8289 139.705 16 137.015 16C134.986 16 132.319 14.7965 132.272 11.4454L133.758 11.3746ZM22.3956 6.89085H15.3867V0.330382H19.4929C21.0976 0.330382 22.372 1.58112 22.372 3.11504V6.89085H22.3956Z" fill="#718096"/>
<path d="M19.4691 15.5282H15.3394V8.54297H22.3246V12.7436C22.3954 14.2775 21.0503 15.5282 19.4691 15.5282Z" fill="#718096"/>
<path d="M46.0172 12.9554H47.4331C47.9759 12.9554 50.265 12.9554 50.265 10.9731C50.265 10.3596 49.9582 8.94363 47.4803 8.94363H46.0172V12.9554ZM46.0172 6.27697H46.9376C47.5983 6.27697 49.3682 6.27696 49.3682 4.64865C49.3682 3.72829 48.8019 3.02033 47.15 3.02033H46.0172V6.27697ZM43.2326 0.353664H46.2532C47.9759 0.353664 49.6278 0.353663 50.9494 1.51C51.7045 2.17077 52.2709 3.32711 52.2709 4.34186C52.2709 6.25337 51.0202 6.96133 50.5482 7.26812C51.5629 7.6693 53.1677 8.51886 53.1677 11.0675C53.2149 12.5307 52.4597 13.8994 51.2562 14.7017C50.0998 15.4569 48.3299 15.6221 47.3152 15.6221H43.1854L43.2326 0.353664ZM41.2031 11.3743C40.0467 14.159 37.0969 15.8817 34.1706 15.8817C29.7812 15.8817 26.1942 12.1531 26.1942 7.88169C26.1942 3.6811 29.6396 0.046875 34.0762 0.046875C36.6013 0.046875 39.7871 1.36841 41.2503 4.69585H38.0172C36.9553 3.42151 35.6337 2.71355 33.911 2.71355C31.4331 2.71355 28.9553 4.97903 28.9553 7.97608C28.9553 10.8551 31.3387 13.2858 34.0526 13.2858C36.0821 13.2858 37.2385 12.1295 37.8992 11.3743H41.2031ZM7.24435 8.54245V6.86694H14.0644V0.353664H2.83137C1.22665 0.353664 -0.000488281 1.6044 -0.000488281 3.13832V12.7902C-0.000488281 14.3478 1.27385 15.5749 2.87857 15.5749H14.1116V8.54245H7.24435Z" fill="#718096"/>
</svg>
