<svg width="28" height="29" viewBox="0 0 28 29" fill="none" xmlns="http://www.w3.org/2000/svg">
<path fill-rule="evenodd" clip-rule="evenodd" d="M26.4552 0.5H1.54483C0.691643 0.5 0 1.19164 0 2.04483V26.9552C0 27.8084 0.691643 28.5 1.54483 28.5H14.9655V17.6717H11.3207V13.4331H14.9655V10.3145C14.9655 6.69862 17.1766 4.72897 20.4014 4.72897C21.4881 4.7266 22.5742 4.78138 23.6552 4.8931V8.6731H21.4345C19.6772 8.6731 19.3345 9.50345 19.3345 10.7297V13.4283H23.5345L22.989 17.6669H19.3103V28.5H26.4552C27.3084 28.5 28 27.8084 28 26.9552V2.04483C28 1.19164 27.3084 0.5 26.4552 0.5Z" fill="#26536B"/>
</svg>
