<svg width="28" height="29" viewBox="0 0 28 29" fill="none" xmlns="http://www.w3.org/2000/svg">
<path fill-rule="evenodd" clip-rule="evenodd" d="M23.8593 24.3576H19.7073V17.8585C19.7073 16.3092 19.6793 14.3165 17.5481 14.3165C15.3888 14.3165 15.0591 16.0058 15.0591 17.7481V24.3576H10.9102V10.9954H14.8895V12.8216H14.947C15.5024 11.7716 16.8558 10.6641 18.8766 10.6641C23.0831 10.6641 23.8593 13.4298 23.8593 17.0294V24.3576ZM6.22765 9.17303C4.89291 9.17303 3.81641 8.09347 3.81641 6.76347C3.81641 5.43502 4.89291 4.35547 6.22765 4.35547C7.55461 4.35547 8.63423 5.43502 8.63423 6.76347C8.63423 8.09347 7.55461 9.17303 6.22765 9.17303ZM4.1475 24.359H8.30573V10.9968H4.1475V24.359ZM25.9279 0.5H2.06434C0.925607 0.5 0 1.40378 0 2.51911V26.4793C0 27.5947 0.925607 28.5 2.06434 28.5H25.9279C27.0697 28.5 28 27.5947 28 26.4793V2.51911C28 1.40378 27.0697 0.5 25.9279 0.5Z" fill="#26536B"/>
</svg>
