<svg width="65" height="20" viewBox="0 0 65 20" fill="none" xmlns="http://www.w3.org/2000/svg">
<g clip-path="url(#clip0_1799_13669)">
<path d="M14.4071 13.7056C15.0745 14.8576 15.7344 15.9965 16.3939 17.1342C13.4737 19.3579 8.93048 19.6267 5.56721 17.0658C1.69682 14.1165 1.06069 9.08408 3.13283 5.46154C5.5161 1.29484 9.97598 0.373351 12.8475 1.04904C12.7698 1.21686 11.05 4.76586 11.05 4.76586C11.05 4.76586 10.914 4.77474 10.8371 4.77622C9.98838 4.812 9.35622 5.00844 8.67865 5.3569C7.93527 5.74275 7.29821 6.30383 6.82316 6.99111C6.3481 7.6784 6.04952 8.47096 5.9535 9.29952C5.85332 10.1398 5.97013 10.9916 6.29291 11.7745C6.56582 12.4364 6.95186 13.0242 7.4694 13.5205C8.26333 14.2826 9.2081 14.7544 10.3032 14.9106C11.3403 15.0587 12.3377 14.9121 13.2723 14.445C13.6228 14.27 13.921 14.0768 14.2696 13.8117C14.314 13.7831 14.3535 13.7468 14.4071 13.7056Z" fill="#718096"/>
<path d="M14.414 3.60255C14.2445 3.43671 14.0875 3.2837 13.9312 3.12971C13.8379 3.03791 13.7481 2.9424 13.6526 2.85282C13.6183 2.82049 13.5781 2.77632 13.5781 2.77632C13.5781 2.77632 13.6106 2.70771 13.6245 2.67958C13.8074 2.31458 14.0939 2.04781 14.4338 1.83558C14.8097 1.59911 15.2476 1.47879 15.6922 1.48983C16.2611 1.50094 16.79 1.64185 17.2364 2.02141C17.5659 2.30151 17.7348 2.65687 17.7646 3.0811C17.8142 3.79677 17.5165 4.34487 16.9253 4.72739C16.5779 4.95246 16.2033 5.12644 15.8277 5.3325C15.6205 5.44627 15.4434 5.54622 15.2409 5.75204C15.0628 5.95859 15.0541 6.15331 15.0541 6.15331L17.7452 6.14985V7.34206H13.5913V7.22682C13.5754 6.64095 13.6441 6.08964 13.9138 5.55757C14.1619 5.06943 14.5475 4.71209 15.0107 4.43692C15.3674 4.22494 15.7431 4.04454 16.1006 3.83354C16.3211 3.70348 16.4769 3.51272 16.4757 3.23608C16.4757 2.99867 16.302 2.78767 16.0539 2.72178C15.4689 2.56482 14.8735 2.81531 14.5638 3.34787C14.5187 3.42561 14.4725 3.50285 14.414 3.60255ZM19.6194 12.4384L17.3515 8.54267H12.8636L10.5811 12.4786H15.102L17.3329 16.3558L19.6194 12.4384Z" fill="#718096"/>
</g>
<rect x="31.8398" y="4" width="1" height="12" fill="#E2E8F0"/>
<path d="M54.8398 0L57.085 6.90983H64.3504L58.4726 11.1803L60.7177 18.0902L54.8398 13.8197L48.962 18.0902L51.2071 11.1803L45.3293 6.90983H52.5947L54.8398 0Z" fill="#718096"/>
<defs>
<clipPath id="clip0_1799_13669">
<rect width="19" height="19.2533" fill="white" transform="translate(0.839844 0.373291)"/>
</clipPath>
</defs>
</svg>
